{"title":"Scooby-Doo.Camp.Scare.2010.DVDRiP.XViD.SWEDISH-Zen_Bud","uid":5990019,"size":733847046,"categoryP":"video","categoryS":"movies","magnet":"?xt=urn:btih:edb05b395e120e129542b2ca8d5b628a450270b6&amp;dn=Scooby-Doo.Camp.Scare.2010.DVDRiP.XViD.SWEDISH-Zen_Bud&amp;tr=udp%3A%2F%2Ftracker.openbittorrent.com%3A80&amp;tr=udp%3A%2F%2Fopen.demonii.com%3A1337&amp;tr=udp%3A%2F%2Ftracker.coppersurfer.tk%3A6969&amp;tr=udp%3A%2F%2Fexodus.desync.com%3A6969","seeders":0,"leechers":1,"uploader":"Zen_Bud","files":-1,"time":1290854834,"description":"***** Scooby-Doo.Camp.Scare.2010.DVDRiP.XViD.SWEDISH-Zen_Bud *****\n\nFormat                           : AVI\nFormat profile                   : OpenDML\nFile size                        : 700 MiB\nDuration                         : 1h 9mn\nOverall bit rate                 : 1 407 Kbps\nWriting application              : AVI-Mux GUI 1.17.8.3\n\nVideo\n\nFormat                           : MPEG-4 Visual\nCodec ID/Hint                    : XviD\nDuration                         : 1h 9mn\nBit rate                         : 1 275 Kbps\nWidth                            : 720 pixels\nHeight                           : 576 pixels\nDisplay aspect ratio             : 16:9\nStream size                      : 634 MiB (91%)\nWriting library                  : XviD 1.1.2 (UTC 2006-11-01)\n\nAudio\n\nFormat                           : MPEG Audio\nCodec ID/Hint                    : MP3\nDuration                         : 1h 9mn\nBit rate                         : 128 Kbps\nChannel(s)                       : 2 channels\nSampling rate                    : 48.0 KHz\nStream size                      : 63.7 MiB (9%)\nWriting library                  : LAME3.98\nLanguage                         : Swedish\n\n","torrent":{"xt":"urn:btih:edb05b395e120e129542b2ca8d5b628a450270b6","amp;dn":"Scooby-Doo.Camp.Scare.2010.DVDRiP.XViD.SWEDISH-Zen_Bud","amp;tr":["udp%3A%2F%2Ftracker.openbittorrent.com%3A80","udp%3A%2F%2Fopen.demonii.com%3A1337","udp%3A%2F%2Ftracker.coppersurfer.tk%3A6969","udp%3A%2F%2Fexodus.desync.com%3A6969"],"infoHash":"edb05b395e120e129542b2ca8d5b628a450270b6","infoHashBuffer":{"type":"Buffer","data":[237,176,91,57,94,18,14,18,149,66,178,202,141,91,98,138,69,2,112,182]},"announce":[],"urlList":[]}}